<svg width="128" height="128" viewBox="0 0 128 128" fill="none" xmlns="http://www.w3.org/2000/svg" role="img" aria-label="OpenBrowser logo">
  <rect width="128" height="128" rx="30" fill="url(#bg)"/>
  <path d="M28 43C28 35.268 34.268 29 42 29H86C93.732 29 100 35.268 100 43V85C100 92.732 93.732 99 86 99H42C34.268 99 28 92.732 28 85V43Z" fill="#0B1020" fill-opacity="0.74"/>
  <circle cx="39" cy="38" r="4" fill="#FF6B7A"/>
  <circle cx="52" cy="38" r="4" fill="#FFD166"/>
  <circle cx="65" cy="38" r="4" fill="#4BE1A0"/>
  <path d="M73.863 54.873L49.586 65.072C47.191 66.079 47.307 69.514 49.765 70.357L61.008 74.211L65.025 85.396C65.905 87.846 69.342 87.911 70.312 85.496L80.139 61.03C81.643 57.285 77.582 53.31 73.863 54.873Z" fill="url(#pointer)"/>
  <defs>
    <linearGradient id="bg" x1="18" y1="10" x2="112" y2="120" gradientUnits="userSpaceOnUse">
      <stop stop-color="#7C4DFF"/>
      <stop offset="0.48" stop-color="#2563EB"/>
      <stop offset="1" stop-color="#14B8A6"/>
    </linearGradient>
    <linearGradient id="pointer" x1="49" y1="54" x2="80" y2="87" gradientUnits="userSpaceOnUse">
      <stop stop-color="#FFFFFF"/>
      <stop offset="1" stop-color="#B8D7FF"/>
    </linearGradient>
  </defs>
</svg>
